<svg width="191.609375" height="30.175964" viewBox="0 0 191.609 30.176" fill="none" xmlns="http://www.w3.org/2000/svg" xmlns:xlink="http://www.w3.org/1999/xlink">
	<defs/>
	<path d="M184.281 23.6799C182.98 23.6799 181.828 23.392 180.825 22.816C179.844 22.2186 179.076 21.4186 178.521 20.416L178.521 30.176L174.233 30.176L174.233 6.59198L177.977 6.59198L177.977 9.47198C178.617 8.4906 179.428 7.7226 180.409 7.16797C181.391 6.59198 182.511 6.30396 183.769 6.30396C184.9 6.30396 185.935 6.52795 186.873 6.97595C187.833 7.42395 188.665 8.05328 189.369 8.86395C190.073 9.65332 190.617 10.5706 191.001 11.616C191.407 12.64 191.609 13.7493 191.609 14.944C191.609 16.5653 191.289 18.0373 190.649 19.36C190.031 20.6826 189.167 21.7386 188.057 22.528C186.969 23.296 185.711 23.6799 184.281 23.6799ZM182.841 20.032C183.503 20.032 184.1 19.8933 184.633 19.616C185.167 19.3386 185.625 18.9653 186.009 18.496C186.415 18.0053 186.713 17.4613 186.905 16.864C187.119 16.2453 187.225 15.6053 187.225 14.944C187.225 14.2399 187.108 13.5893 186.873 12.9919C186.66 12.3947 186.34 11.8719 185.913 11.424C185.487 10.9547 184.985 10.592 184.409 10.3359C183.855 10.08 183.247 9.95197 182.585 9.95197C182.18 9.95197 181.764 10.0266 181.337 10.176C180.932 10.304 180.537 10.496 180.153 10.752C179.769 11.0079 179.428 11.3066 179.129 11.6479C178.852 11.9893 178.649 12.3626 178.521 12.7679L178.521 16.704C178.777 17.3226 179.119 17.8879 179.545 18.4C179.993 18.912 180.505 19.3173 181.081 19.616C181.657 19.8933 182.244 20.032 182.841 20.032Z" fill="#202020" fill-opacity="1.000000" fill-rule="evenodd"/>
	<path d="M164 23.6799C162.699 23.6799 161.547 23.392 160.544 22.816C159.563 22.2186 158.795 21.4186 158.24 20.416L158.24 30.176L153.952 30.176L153.952 6.59198L157.696 6.59198L157.696 9.47198C158.336 8.4906 159.147 7.7226 160.128 7.16797C161.109 6.59198 162.229 6.30396 163.488 6.30396C164.619 6.30396 165.654 6.52795 166.592 6.97595C167.552 7.42395 168.384 8.05328 169.088 8.86395C169.792 9.65332 170.336 10.5706 170.72 11.616C171.125 12.64 171.328 13.7493 171.328 14.944C171.328 16.5653 171.008 18.0373 170.368 19.36C169.75 20.6826 168.885 21.7386 167.776 22.528C166.688 23.296 165.43 23.6799 164 23.6799ZM162.56 20.032C163.221 20.032 163.819 19.8933 164.352 19.616C164.885 19.3386 165.344 18.9653 165.728 18.496C166.133 18.0053 166.432 17.4613 166.624 16.864C166.837 16.2453 166.944 15.6053 166.944 14.944C166.944 14.2399 166.827 13.5893 166.592 12.9919C166.379 12.3947 166.059 11.8719 165.632 11.424C165.206 10.9547 164.704 10.592 164.128 10.3359C163.573 10.08 162.966 9.95197 162.304 9.95197C161.899 9.95197 161.483 10.0266 161.056 10.176C160.651 10.304 160.256 10.496 159.872 10.752C159.488 11.0079 159.147 11.3066 158.848 11.6479C158.571 11.9893 158.368 12.3626 158.24 12.7679L158.24 16.704C158.496 17.3226 158.837 17.8879 159.264 18.4C159.712 18.912 160.224 19.3173 160.8 19.616C161.376 19.8933 161.963 20.032 162.56 20.032Z" fill="#202020" fill-opacity="1.000000" fill-rule="evenodd"/>
	<path d="M139.044 0.640015L143.524 0.640015L151.876 23.36L147.332 23.36L145.22 17.696L137.284 17.696L135.204 23.36L130.66 23.36L139.044 0.640015ZM144.42 14.592L141.284 5.216L138.02 14.592L144.42 14.592Z" fill="#202020" fill-opacity="1.000000" fill-rule="evenodd"/>
	<path d="M131.499 10.304C130.197 10.304 129.035 10.5601 128.011 11.072C126.987 11.5627 126.251 12.2773 125.803 13.2161L125.803 23.36L121.515 23.36L121.515 6.59204L125.451 6.59204L125.451 10.176C126.048 9.02405 126.805 8.11737 127.723 7.45605C128.64 6.79474 129.611 6.43207 130.635 6.36804C130.869 6.36804 131.051 6.36804 131.179 6.36804C131.307 6.36804 131.413 6.37872 131.499 6.40002L131.499 10.304Z" fill="#F5F4F4" fill-opacity="1.000000" fill-rule="evenodd"/>
	<path d="M110.135 23.6799C108.791 23.6799 107.575 23.4559 106.487 23.0079C105.399 22.5386 104.471 21.9093 103.703 21.1199C102.935 20.3093 102.337 19.392 101.911 18.368C101.505 17.3226 101.303 16.2239 101.303 15.072C101.303 13.472 101.655 12.0106 102.359 10.6879C103.084 9.3653 104.108 8.30927 105.431 7.51996C106.775 6.70929 108.353 6.30396 110.167 6.30396C112.001 6.30396 113.569 6.70929 114.871 7.51996C116.172 8.30927 117.164 9.3653 117.847 10.6879C118.551 11.9893 118.903 13.3973 118.903 14.912C118.903 15.168 118.892 15.4346 118.871 15.712C118.849 15.968 118.828 16.1813 118.807 16.3519L105.847 16.3519C105.932 17.2053 106.177 17.952 106.583 18.592C107.009 19.2319 107.543 19.7226 108.183 20.064C108.844 20.384 109.548 20.5439 110.295 20.5439C111.148 20.5439 111.948 20.3413 112.695 19.936C113.463 19.5093 113.985 18.9547 114.263 18.272L117.943 19.296C117.537 20.1493 116.951 20.9066 116.183 21.5679C115.436 22.2293 114.551 22.752 113.527 23.136C112.503 23.4986 111.372 23.6799 110.135 23.6799ZM105.751 13.632L114.519 13.632C114.433 12.7786 114.188 12.0426 113.783 11.424C113.399 10.7839 112.887 10.2933 112.247 9.95197C111.607 9.58929 110.892 9.40796 110.103 9.40796C109.335 9.40796 108.631 9.58929 107.991 9.95197C107.372 10.2933 106.86 10.7839 106.455 11.424C106.071 12.0426 105.836 12.7786 105.751 13.632Z" fill="#F5F4F4" fill-opacity="1.000000" fill-rule="evenodd"/>
	<path d="M98.6299 23.36L94.3419 23.36L94.3419 13.952C94.3419 12.6507 94.0859 11.68 93.5739 11.04C93.0833 10.4 92.4006 10.08 91.5259 10.08C91.0139 10.08 90.4699 10.2293 89.8939 10.528C89.3179 10.8267 88.7952 11.2427 88.3259 11.776C87.8779 12.288 87.5472 12.8853 87.3339 13.568L87.3339 23.36L83.0459 23.36L83.0459 0L87.3339 0L87.3339 9.69598C87.9526 8.62933 88.7952 7.79736 89.8619 7.20001C90.9286 6.60266 92.0912 6.30402 93.3499 6.30402C94.4379 6.30402 95.3232 6.49597 96.0059 6.88C96.6885 7.24268 97.2219 7.74402 97.6059 8.38397C97.9899 9.00269 98.2565 9.70667 98.4059 10.496C98.5552 11.264 98.6299 12.064 98.6299 12.896L98.6299 23.36Z" fill="#F5F4F4" fill-opacity="1.000000" fill-rule="evenodd"/>
	<path d="M80.8126 22.496C80.45 22.6453 80.0126 22.816 79.5006 23.008C78.9886 23.2 78.434 23.3493 77.8366 23.456C77.2606 23.584 76.674 23.6479 76.0766 23.6479C75.2873 23.6479 74.562 23.5093 73.9006 23.232C73.2393 22.9547 72.7059 22.5173 72.3006 21.92C71.9166 21.3013 71.7246 20.5013 71.7246 19.52L71.7246 9.888L69.5166 9.888L69.5166 6.59198L71.7246 6.59198L71.7246 1.15198L76.0126 1.15198L76.0126 6.59198L79.5326 6.59198L79.5326 9.888L76.0126 9.888L76.0126 18.08C76.0339 18.656 76.1939 19.072 76.4926 19.328C76.7913 19.584 77.1646 19.712 77.6126 19.712C78.0606 19.712 78.4979 19.6373 78.9246 19.488C79.3513 19.3386 79.6926 19.2106 79.9486 19.104L80.8126 22.496Z" fill="#F5F4F4" fill-opacity="1.000000" fill-rule="evenodd"/>
	<path d="M51.3936 18.4C51.3936 17.312 51.6922 16.3626 52.2896 15.5519C52.9082 14.72 53.7615 14.08 54.8495 13.632C55.9376 13.184 57.1855 12.96 58.5936 12.96C59.2975 12.96 60.0122 13.0133 60.7375 13.1199C61.4629 13.2266 62.0922 13.3973 62.6255 13.632L62.6255 12.736C62.6255 11.6693 62.3055 10.848 61.6655 10.272C61.0469 9.69598 60.1189 9.40796 58.8815 9.40796C57.9642 9.40796 57.0895 9.56793 56.2576 9.88794C55.4255 10.2079 54.5509 10.6773 53.6335 11.296L52.2576 8.47998C53.3669 7.75464 54.4976 7.21063 55.6495 6.84796C56.8229 6.48529 58.0496 6.30396 59.3295 6.30396C61.7189 6.30396 63.5749 6.90131 64.8976 8.09595C66.2416 9.29065 66.9136 10.9973 66.9136 13.2159L66.9136 18.5599C66.9136 19.0079 66.9882 19.3279 67.1376 19.52C67.3082 19.712 67.5749 19.8293 67.9376 19.8719L67.9376 23.36C67.5535 23.424 67.2015 23.4773 66.8815 23.52C66.5829 23.5626 66.3269 23.584 66.1136 23.584C65.2603 23.584 64.6096 23.392 64.1616 23.0079C63.7349 22.624 63.4682 22.1546 63.3616 21.6L63.2656 20.736C62.5402 21.6746 61.6335 22.4 60.5455 22.912C59.4576 23.424 58.3482 23.6799 57.2175 23.6799C56.1082 23.6799 55.1055 23.4559 54.2095 23.0079C53.3349 22.5386 52.6415 21.9093 52.1296 21.1199C51.6389 20.3093 51.3936 19.4026 51.3936 18.4ZM61.8256 19.264C62.0602 19.0079 62.2522 18.752 62.4016 18.496C62.5509 18.2399 62.6255 18.0053 62.6255 17.7919L62.6255 16.0959C62.1136 15.8826 61.5589 15.7226 60.9615 15.616C60.3642 15.488 59.7989 15.424 59.2656 15.424C58.1562 15.424 57.2389 15.6693 56.5135 16.16C55.8096 16.6293 55.4576 17.2586 55.4576 18.048C55.4576 18.4746 55.5749 18.8799 55.8096 19.264C56.0443 19.6479 56.3856 19.9573 56.8336 20.192C57.2816 20.4266 57.8149 20.5439 58.4335 20.5439C59.0735 20.5439 59.7029 20.4266 60.3215 20.192C60.9402 19.936 61.4415 19.6266 61.8256 19.264Z" fill="#F5F4F4" fill-opacity="1.000000" fill-rule="evenodd"/>
	<path d="M41.166 23.6799C39.822 23.6799 38.606 23.4559 37.518 23.0079C36.43 22.5386 35.502 21.9093 34.734 21.1199C33.966 20.3093 33.3687 19.392 32.942 18.368C32.5367 17.3226 32.334 16.2239 32.334 15.072C32.334 13.472 32.686 12.0106 33.39 10.6879C34.1153 9.3653 35.1393 8.30927 36.462 7.51996C37.806 6.70929 39.3846 6.30396 41.198 6.30396C43.0327 6.30396 44.6006 6.70929 45.902 7.51996C47.2033 8.30927 48.1953 9.3653 48.878 10.6879C49.582 11.9893 49.934 13.3973 49.934 14.912C49.934 15.168 49.9233 15.4346 49.902 15.712C49.8807 15.968 49.8593 16.1813 49.838 16.3519L36.878 16.3519C36.9633 17.2053 37.2087 17.952 37.614 18.592C38.0406 19.2319 38.574 19.7226 39.214 20.064C39.8753 20.384 40.5793 20.5439 41.326 20.5439C42.1793 20.5439 42.9793 20.3413 43.726 19.936C44.494 19.5093 45.0167 18.9547 45.294 18.272L48.974 19.296C48.5687 20.1493 47.982 20.9066 47.214 21.5679C46.4673 22.2293 45.582 22.752 44.558 23.136C43.534 23.4986 42.4033 23.6799 41.166 23.6799ZM36.782 13.632L45.55 13.632C45.4647 12.7786 45.2193 12.0426 44.814 11.424C44.43 10.7839 43.918 10.2933 43.278 9.95197C42.638 9.58929 41.9233 9.40796 41.134 9.40796C40.366 9.40796 39.662 9.58929 39.022 9.95197C38.4033 10.2933 37.8913 10.7839 37.486 11.424C37.102 12.0426 36.8673 12.7786 36.782 13.632Z" fill="#F5F4F4" fill-opacity="1.000000" fill-rule="evenodd"/>
	<path d="M10.144 0.704041L14.24 0.704041L16.832 8.224L19.456 0.704041L23.52 0.704041L19.616 11.04L22.496 18.272L28.928 0.640015L33.728 0.640015L24.64 23.36L20.832 23.36L16.832 13.824L12.864 23.36L9.05603 23.36L0 0.640015L4.73602 0.640015L11.2 18.272L14.016 11.04L10.144 0.704041Z" fill="#F5F4F4" fill-opacity="1.000000" fill-rule="evenodd"/>
</svg>
